<?xml version="1.0" standalone="no"?>
<!DOCTYPE svg PUBLIC "-//W3C//DTD SVG 20010904//EN"
 "http://www.w3.org/TR/2001/REC-SVG-20010904/DTD/svg10.dtd">
<svg version="1.0" xmlns="http://www.w3.org/2000/svg"
 width="204.000000pt" height="192.000000pt" viewBox="0 0 204.000000 192.000000"
 preserveAspectRatio="xMidYMid meet">

<g transform="translate(0.000000,192.000000) scale(0.100000,-0.100000)"
fill="#000000" stroke="none">
<path d="M713 1093 c15 -2 39 -2 55 0 15 2 2 4 -28 4 -30 0 -43 -2 -27 -4z"/>
<path d="M933 998 l32 -93 108 -3 107 -3 -6 40 -6 40 36 -11 c28 -9 35 -15 30
-30 -3 -10 -1 -18 4 -18 8 0 52 139 52 163 0 4 -88 7 -195 7 l-194 0 32 -92z
m267 6 c0 -8 -4 -13 -9 -9 -5 3 -16 -2 -24 -10 -18 -17 -37 -20 -37 -5 0 6 7
10 16 10 9 0 12 5 8 12 -5 8 -2 9 9 5 10 -3 17 -2 17 3 0 6 5 10 10 10 6 0 10
-7 10 -16z m-50 -48 c0 -11 -19 -15 -25 -6 -3 5 1 10 9 10 9 0 16 -2 16 -4z"/>
<path d="M703 1043 c20 -2 54 -2 75 0 20 2 3 4 -38 4 -41 0 -58 -2 -37 -4z"/>
<path d="M658 993 c34 -2 88 -2 120 0 31 2 3 3 -63 3 -66 0 -92 -1 -57 -3z"/>
<path d="M653 943 c37 -2 96 -2 130 0 34 2 4 3 -68 3 -71 0 -99 -1 -62 -3z"/>
<path d="M710 900 l-115 -6 128 -2 c79 -1 127 2 127 8 0 6 -6 9 -12 8 -7 -1
-65 -5 -128 -8z"/>
<path d="M796 862 c-2 -4 13 -6 35 -4 21 2 39 6 39 8 0 7 -69 4 -74 -4z"/>
<path d="M944 796 c-9 -22 15 -48 40 -44 15 2 21 10 21 28 0 20 -6 26 -28 28
-18 2 -29 -2 -33 -12z"/>
<path d="M1154 796 c-10 -26 4 -48 28 -44 17 2 23 10 23 28 0 18 -6 26 -23 28
-13 2 -25 -3 -28 -12z"/>
</g>
</svg>
